<?xml version="1.0" encoding="UTF-8" standalone="no"?>
<!-- Created with Inkscape (http://www.inkscape.org/) -->

<svg
   version="1.1"
   id="svg1"
   width="793.70667"
   height="793.70667"
   viewBox="0 0 793.70667 793.70667"
   sodipodi:docname="Obius.eps"
   xmlns:inkscape="http://www.inkscape.org/namespaces/inkscape"
   xmlns:sodipodi="http://sodipodi.sourceforge.net/DTD/sodipodi-0.dtd"
   xmlns="http://www.w3.org/2000/svg"
   xmlns:svg="http://www.w3.org/2000/svg">
  <defs
     id="defs1" />
  <sodipodi:namedview
     id="namedview1"
     pagecolor="#ffffff"
     bordercolor="#000000"
     borderopacity="0.25"
     inkscape:showpageshadow="2"
     inkscape:pageopacity="0.0"
     inkscape:pagecheckerboard="0"
     inkscape:deskcolor="#d1d1d1">
    <inkscape:page
       x="0"
       y="0"
       inkscape:label="1"
       id="page1"
       width="793.70667"
       height="793.70667"
       margin="0"
       bleed="0" />
  </sodipodi:namedview>
  <g
     id="g1"
     inkscape:groupmode="layer"
     inkscape:label="1">
    <g
       id="group-R5">
      <path
         id="path2"
         d="M 5952.75,0.0117188 H -0.00390625 V 5952.76 H 5952.75 V 0.0117188"
         style="fill:#232223;fill-opacity:1;fill-rule:nonzero;stroke:none"
         transform="matrix(0.13333333,0,0,-0.13333333,0,793.70667)" />
      <path
         id="path3"
         d="m 2388.21,3550.14 c -16.71,0 -29.23,-4.12 -37.15,-12.51 -27.03,-28.63 1.55,-106.08 80.5,-218.07 180.8,-256.45 573.36,-617.88 875.1,-805.69 155.42,-96.74 262.97,-132.71 295.04,-98.74 27.04,28.64 -1.56,106.09 -80.51,218.08 -180.79,256.44 -573.35,617.88 -875.09,805.68 v 0 c -117.04,72.85 -206.94,111.25 -257.89,111.25 z m 1176.46,-1154.8 c -53.22,-0.01 -143.2,38.24 -261.98,112.17 -302.45,188.25 -695.98,550.59 -877.26,807.73 -82.4,116.89 -110.01,195.57 -79.82,227.54 35.28,37.34 143.4,2.73 304.45,-97.52 302.45,-188.25 695.99,-550.6 877.26,-807.73 82.4,-116.9 110.01,-195.58 79.83,-227.54 -9.26,-9.81 -23.55,-14.65 -42.48,-14.65"
         style="fill:#ffffff;fill-opacity:1;fill-rule:nonzero;stroke:none"
         transform="matrix(0.13333333,0,0,-0.13333333,0,793.70667)" />
      <path
         id="path4"
         d="m 2358.8,3617.96 c -16.18,0 -28.61,-3.9 -36.88,-11.85 -29.5,-28.37 -5.78,-107.39 66.77,-222.48 174.33,-276.58 580.95,-683.18 906.4,-906.39 172.36,-118.21 297.84,-167 335.75,-130.59 29.49,28.38 5.78,107.39 -66.77,222.49 -174.34,276.57 -580.95,683.18 -906.4,906.39 -134.76,92.42 -240.88,142.43 -298.87,142.43 z M 3593.25,2327.07 c -60.12,0 -164.27,49.24 -302.4,143.98 -326.16,223.69 -733.71,631.28 -908.51,908.58 -75.73,120.14 -98.42,200.33 -65.61,231.89 41.82,40.28 164.44,-5.84 345.18,-129.81 326.16,-223.7 733.71,-631.27 908.51,-908.57 75.73,-120.15 98.42,-200.33 65.61,-231.89 -9.86,-9.5 -24.23,-14.18 -42.78,-14.18"
         style="fill:#ffffff;fill-opacity:1;fill-rule:nonzero;stroke:none"
         transform="matrix(0.13333333,0,0,-0.13333333,0,793.70667)" />
      <path
         id="path5"
         d="m 2335.06,3689.18 c -16.18,0 -28.92,-3.84 -37.91,-11.66 -32.23,-28.07 -14.23,-108 50.66,-225.09 163.92,-295.76 580.44,-748.9 928.5,-1010.12 192.08,-144.18 333.87,-206.65 379.29,-167.06 32.23,28.07 14.24,108 -50.65,225.09 -163.94,295.77 -580.46,748.9 -928.5,1010.12 -154.08,115.64 -275.82,178.72 -341.39,178.72 z M 3617.83,2256.25 c -68.18,0 -189.5,62.58 -346.04,180.06 -348.76,261.75 -766.19,715.95 -930.54,1012.49 -67.76,122.25 -84.71,203.3 -49.03,234.38 48.98,42.7 190.69,-18.08 388.74,-166.73 348.74,-261.74 766.19,-715.94 930.55,-1012.48 67.76,-122.25 84.71,-203.3 49.02,-234.37 -10.27,-8.95 -24.61,-13.35 -42.7,-13.35"
         style="fill:#ffffff;fill-opacity:1;fill-rule:nonzero;stroke:none"
         transform="matrix(0.13333333,0,0,-0.13333333,0,793.70667)" />
      <path
         id="path6"
         d="m 2317.26,3762.81 c -16.37,0 -29.62,-3.78 -39.47,-11.51 -35.28,-27.63 -23.86,-107.75 32.15,-225.61 149.01,-313.53 570.42,-814.05 939.39,-1115.75 211.96,-173.31 371.1,-251.21 425.64,-208.48 35.27,27.63 23.86,107.76 -32.16,225.61 -149,313.52 -570.42,814.05 -939.39,1115.75 -173.67,142.01 -311.87,219.99 -386.16,219.99 z M 3635.52,2182.54 c -76.98,-0.01 -214.47,77.3 -390.93,221.6 -369.69,302.28 -792.01,803.96 -941.42,1118.33 -58.51,123.12 -68.89,204.29 -30.01,234.74 58.39,45.76 216.94,-30.27 435,-208.58 v 0 c 369.7,-302.29 792.02,-803.98 941.43,-1118.34 58.5,-123.11 68.88,-204.28 30.01,-234.74 -11.15,-8.72 -25.93,-13.01 -44.08,-13.01"
         style="fill:#ffffff;fill-opacity:1;fill-rule:nonzero;stroke:none"
         transform="matrix(0.13333333,0,0,-0.13333333,0,793.70667)" />
      <path
         id="path7"
         d="m 2306.49,3838.13 c -16.72,0 -30.62,-3.71 -41.5,-11.29 -39.28,-27.39 -35.39,-104.79 11.26,-223.84 129.03,-329.33 549.34,-877.47 936.95,-1221.89 231.41,-205.64 408.8,-301.02 474.56,-255.19 39.29,27.4 35.39,104.8 -11.26,223.84 -129.01,329.31 -549.32,877.45 -936.94,1221.9 v 0 c -193.15,171.63 -348.69,266.47 -433.07,266.47 z m 1341,-1730.52 c -87.33,0 -244.94,95.21 -439.27,267.89 -388.35,345.09 -809.56,894.51 -938.95,1224.76 -48.06,122.65 -51.02,203.12 -8.56,232.73 68.79,47.94 249.66,-47.64 483.83,-255.72 388.36,-345.11 809.57,-894.54 938.95,-1224.77 48.06,-122.65 51.02,-203.12 8.57,-232.73 -11.71,-8.15 -26.67,-12.16 -44.57,-12.16"
         style="fill:#ffffff;fill-opacity:1;fill-rule:nonzero;stroke:none"
         transform="matrix(0.13333333,0,0,-0.13333333,0,793.70667)" />
      <path
         id="path8"
         d="m 2302.4,3913.86 c -16.64,0 -30.83,-3.45 -42.36,-10.49 -43.27,-26.43 -47.44,-102.35 -12.05,-219.57 103.44,-342.55 515.65,-937.8 918.87,-1326.9 209.84,-202.48 387.26,-317.98 483.5,-318 16.63,0 30.82,3.45 42.35,10.49 43.28,26.44 47.45,102.35 12.05,219.57 -103.44,342.56 -515.65,937.8 -918.87,1326.9 -209.83,202.49 -387.25,318 -483.49,318 z M 3650.1,2031.35 c -99.18,-0.01 -275.07,114.25 -488.45,320.16 -404,389.84 -817.08,986.54 -920.84,1330.13 -36.49,120.84 -31.19,199.72 15.32,228.13 82.55,50.41 282.54,-64.92 534.97,-308.51 404,-389.85 817.09,-986.55 920.85,-1330.13 36.49,-120.84 31.19,-199.74 -15.33,-228.14 -12.77,-7.8 -28.37,-11.63 -46.52,-11.64"
         style="fill:#ffffff;fill-opacity:1;fill-rule:nonzero;stroke:none"
         transform="matrix(0.13333333,0,0,-0.13333333,0,793.70667)" />
      <path
         id="path9"
         d="m 2308.79,3989.9 c -16.92,0 -31.79,-3.23 -44.41,-9.82 -47.91,-25.01 -60.98,-98.55 -37.78,-212.67 71.66,-352.56 467.63,-993.55 882.67,-1428.88 262.35,-275.16 484.18,-415.33 579.11,-365.85 47.91,25.01 60.97,98.56 37.78,212.67 -71.66,352.56 -467.63,993.55 -882.69,1428.88 C 2616.04,3852.79 2419,3989.9 2308.79,3989.9 Z M 3643.44,1955.24 c -113.26,0 -308.3,135.52 -539.59,378.12 -415.87,436.19 -812.7,1078.83 -884.6,1432.55 -23.94,117.74 -9.53,194.11 41.67,220.82 99.39,51.88 319.22,-85.43 587.98,-367.32 415.88,-436.2 812.71,-1078.85 884.6,-1432.57 23.94,-117.73 9.53,-194.09 -41.66,-220.81 -13.85,-7.23 -30.07,-10.79 -48.4,-10.79"
         style="fill:#ffffff;fill-opacity:1;fill-rule:nonzero;stroke:none"
         transform="matrix(0.13333333,0,0,-0.13333333,0,793.70667)" />
      <path
         id="path10"
         d="m 2325.43,4064.71 c -16.89,0 -32.16,-2.85 -45.69,-8.65 -53.42,-22.93 -76.3,-93.17 -66.13,-203.12 33.12,-358.59 403.57,-1042.98 825.78,-1525.62 275.63,-315.06 518.39,-480.01 633.63,-430.61 53.42,22.92 76.29,93.17 66.14,203.12 -33.14,358.58 -403.58,1042.97 -825.79,1525.61 -243.27,278.09 -460.97,439.27 -587.94,439.27 z M 3628.3,1880.78 c -129.85,0 -349.87,161.9 -594.55,441.6 -423.1,483.65 -794.36,1169.95 -827.61,1529.87 -10.49,113.5 13.94,186.36 70.64,210.7 118.34,50.79 364.4,-114.98 642.23,-432.57 423.1,-483.65 794.36,-1169.94 827.61,-1529.87 10.49,-113.5 -13.95,-186.35 -70.65,-210.7 -14.12,-6.05 -30.07,-9.03 -47.67,-9.03"
         style="fill:#ffffff;fill-opacity:1;fill-rule:nonzero;stroke:none"
         transform="matrix(0.13333333,0,0,-0.13333333,0,793.70667)" />
      <path
         id="path11"
         d="m 2353.23,4137.07 c -16.1,0 -31.09,-2.24 -44.89,-6.81 -60.16,-19.89 -93.92,-85.91 -97.63,-190.91 -12.73,-359.86 321.69,-1084.18 745.47,-1614.64 284.47,-356.07 548.11,-548.51 688.23,-502.21 60.17,19.9 93.93,85.91 97.64,190.92 12.72,359.86 -321.69,1084.18 -745.48,1614.63 v 0 c -256.46,321.01 -496.03,509.02 -643.34,509.02 z M 3600.29,1808.33 c -150.12,0 -392.09,188.9 -649.97,511.7 -424.74,531.66 -759.89,1258.2 -747.11,1619.58 3.83,108.42 39.37,176.81 102.78,197.77 143.04,47.34 409.95,-146.04 696.44,-504.65 v 0 c 424.75,-531.64 759.89,-1258.18 747.12,-1619.58 -3.84,-108.42 -39.38,-176.81 -102.78,-197.77 -14.29,-4.73 -29.82,-7.05 -46.48,-7.05"
         style="fill:#ffffff;fill-opacity:1;fill-rule:nonzero;stroke:none"
         transform="matrix(0.13333333,0,0,-0.13333333,0,793.70667)" />
      <path
         id="path12"
         d="m 2392.8,4205.65 c -13.79,0 -26.99,-1.4 -39.57,-4.23 -69.71,-15.66 -114.64,-74.9 -133.54,-176.04 -66.43,-355.51 220.2,-1115.03 638.95,-1693.12 287.22,-396.49 571.03,-619.08 740.89,-580.93 69.71,15.68 114.64,74.91 133.54,176.06 66.43,355.51 -220.2,1115.03 -638.95,1693.11 -265.94,367.11 -529.02,585.15 -701.32,585.15 z M 3560.49,1739.67 c -175.05,0 -440.55,219.1 -707.92,588.2 -419.79,579.51 -707.01,1341.63 -640.25,1698.88 19.23,102.9 67.38,165.83 139.26,181.99 172.79,38.81 459.62,-184.9 748.61,-583.84 419.79,-579.52 707,-1341.64 640.25,-1698.9 -19.23,-102.9 -67.39,-165.83 -139.27,-181.98 -12.93,-2.91 -26.52,-4.35 -40.68,-4.35"
         style="fill:#ffffff;fill-opacity:1;fill-rule:nonzero;stroke:none"
         transform="matrix(0.13333333,0,0,-0.13333333,0,793.70667)" />
      <path
         id="path13"
         d="m 2444.27,4269.07 c -8.66,0 -17.13,-0.45 -25.47,-1.37 -81.2,-8.94 -140.52,-62.14 -176.3,-158.1 -128.49,-344.63 97.3,-1133.25 503.33,-1757.95 281.86,-433.68 583.93,-689.11 788.13,-666.59 81.2,8.95 140.52,62.14 176.29,158.1 128.5,344.64 -97.29,1133.26 -503.32,1757.96 -270.36,415.96 -559.26,667.95 -762.66,667.95 z M 3508.75,1676.21 c -206.1,0 -497.43,253.2 -769.21,671.35 -407.16,626.45 -633.29,1418.08 -504.07,1764.66 36.85,98.84 98.26,153.66 182.51,162.94 207.05,22.88 511.82,-233.9 795.24,-669.95 407.16,-626.45 633.28,-1418.08 504.06,-1764.67 -36.85,-98.83 -98.25,-153.65 -182.5,-162.94 -8.5,-0.93 -17.2,-1.39 -26.03,-1.39"
         style="fill:#ffffff;fill-opacity:1;fill-rule:nonzero;stroke:none"
         transform="matrix(0.13333333,0,0,-0.13333333,0,793.70667)" />
      <path
         id="path14"
         d="m 2507.27,4326.04 c -95.01,0 -171.05,-45.62 -226.08,-135.68 -199.38,-326.28 -48.79,-1136.33 335.69,-1805.74 266.6,-464.18 582.55,-754.58 824.53,-757.88 1.36,-0.02 2.73,-0.02 4.07,-0.02 95.02,0 171.05,45.63 226.08,135.68 199.38,326.28 48.8,1136.34 -335.68,1805.75 v 0 c -266.61,464.18 -582.56,754.58 -824.54,757.87 -1.36,0.01 -2.72,0.02 -4.07,0.02 z m 938.24,-2706.82 c -1.4,0 -2.79,0 -4.19,0.02 -244.62,3.33 -563.02,295.17 -830.94,761.64 -385.7,671.54 -536.25,1485.02 -335.59,1813.39 57.29,93.75 137.04,140.66 236.65,139.24 244.61,-3.32 563.01,-295.16 830.94,-761.63 385.7,-671.53 536.24,-1485.02 335.59,-1813.39 -56.49,-92.43 -134.69,-139.27 -232.46,-139.27"
         style="fill:#ffffff;fill-opacity:1;fill-rule:nonzero;stroke:none"
         transform="matrix(0.13333333,0,0,-0.13333333,0,793.70667)" />
      <path
         id="path15"
         d="m 2582.05,4375.3 c -94.24,0 -176.14,-36.68 -244.1,-109.49 -279.52,-299.47 -219.82,-1121.64 133.09,-1832.76 240.33,-484.27 563.2,-810.48 842.58,-851.32 118.49,-17.33 219.83,18.08 301.18,105.23 279.53,299.46 219.83,1121.63 -133.08,1832.75 -240.34,484.27 -563.19,810.48 -842.58,851.32 -19.49,2.85 -38.54,4.27 -57.09,4.27 z m 786.97,-2805.19 c -18.47,0 -37.3,1.4 -56.48,4.2 -281.79,41.19 -606.8,368.96 -848.22,855.4 -354.18,713.69 -413.33,1539.66 -131.85,1841.21 81.95,87.8 188.4,125 307.76,107.53 281.78,-41.19 606.8,-368.96 848.21,-855.41 354.17,-713.68 413.33,-1539.65 131.85,-1841.2 -68.78,-73.69 -154.81,-111.72 -251.27,-111.73"
         style="fill:#ffffff;fill-opacity:1;fill-rule:nonzero;stroke:none"
         transform="matrix(0.13333333,0,0,-0.13333333,0,793.70667)" />
      <path
         id="path16"
         d="m 2668.74,4415.16 c -91.86,0 -177.84,-27.33 -253.64,-81.34 -369.29,-263.14 -417.46,-1086.28 -107.4,-1834.94 203.26,-490.8 522.62,-851.12 833.43,-940.33 145.4,-41.75 282.51,-20.84 396.52,60.39 369.29,263.14 417.47,1086.29 107.41,1834.95 -203.28,490.8 -522.62,851.12 -833.43,940.33 -48.74,13.99 -96.56,20.94 -142.89,20.94 z m 615.35,-2885.08 c -47.04,0 -95.56,7.05 -145.03,21.25 -312.96,89.84 -634.17,451.82 -838.29,944.68 -311.32,751.7 -261.99,1578.87 109.97,1843.92 115.96,82.62 255.3,103.9 402.96,61.5 312.95,-89.83 634.16,-451.8 838.29,-944.67 311.32,-751.71 261.98,-1578.88 -109.98,-1843.93 -77.1,-54.93 -164.56,-82.75 -257.92,-82.75"
         style="fill:#ffffff;fill-opacity:1;fill-rule:nonzero;stroke:none"
         transform="matrix(0.13333333,0,0,-0.13333333,0,793.70667)" />
      <path
         id="path17"
         d="m 2758.94,4445.45 c -84.55,0 -166.55,-17.81 -243.88,-53.45 -468.97,-216.19 -643.31,-1027.21 -388.65,-1807.91 159.74,-489.66 454.79,-869.22 789.29,-1015.3 181.19,-79.14 361.7,-81.91 521.99,-8.02 468.98,216.18 643.32,1027.2 388.66,1807.91 -159.73,489.66 -454.79,869.21 -789.29,1015.3 -93.79,40.96 -187.41,61.47 -278.12,61.47 z M 3193.83,1499.8 c -91.74,0 -186.34,20.71 -281.13,62.11 -336.43,146.93 -633.03,528.18 -793.42,1019.85 -255.81,784.2 -79.67,1599.33 392.64,1817.04 162.31,74.82 344.92,72.07 528.14,-7.95 336.43,-146.93 633.03,-528.18 793.41,-1019.85 255.81,-784.2 79.67,-1599.32 -392.63,-1817.05 -78.33,-36.1 -161.43,-54.15 -247.01,-54.15"
         style="fill:#ffffff;fill-opacity:1;fill-rule:nonzero;stroke:none"
         transform="matrix(0.13333333,0,0,-0.13333333,0,793.70667)" />
      <path
         id="path18"
         d="m 2849.59,4465.66 c -70.43,0 -140.43,-9.31 -209.29,-28.04 -578.75,-157.46 -898.76,-941.11 -713.35,-1746.9 107.38,-466.65 371.39,-864.94 706.23,-1065.43 221.59,-132.67 456.51,-170.76 679.28,-110.14 578.75,157.45 898.76,941.11 713.35,1746.9 -107.37,466.64 -371.39,864.93 -706.23,1065.42 -153.1,91.67 -312.57,138.19 -469.99,138.19 z M 3103.13,1479.6 c -158.77,0 -319.49,46.87 -473.8,139.25 -336.56,201.53 -601.86,601.6 -709.68,1070.19 -186.31,809.66 136.09,1597.31 718.68,1755.81 224.82,61.16 461.71,22.81 685.1,-110.94 336.56,-201.52 601.86,-601.58 709.68,-1070.18 186.3,-809.66 -136.09,-1597.32 -718.68,-1755.82 -69.52,-18.91 -140.22,-28.31 -211.3,-28.31"
         style="fill:#ffffff;fill-opacity:1;fill-rule:nonzero;stroke:none"
         transform="matrix(0.13333333,0,0,-0.13333333,0,793.70667)" />
      <path
         id="path19"
         d="m 2928.1,4475.94 c -44.82,0 -89.82,-2.74 -134.83,-8.26 -698.65,-85.79 -1184.9,-824.57 -1083.93,-1646.87 48.92,-398.45 226.78,-756.84 500.81,-1009.13 273.87,-252.15 611.04,-368.16 949.33,-326.6 698.65,85.8 1184.9,824.58 1083.94,1646.87 -48.93,398.46 -226.79,756.84 -500.82,1009.14 -237.43,218.59 -522.41,334.85 -814.5,334.85 z m 96.52,-3006.63 c -293.96,0 -580.71,116.96 -819.54,336.85 -275.35,253.49 -454.05,613.51 -503.18,1013.73 -101.48,826.41 387.7,1568.94 1090.45,1655.23 340.56,41.81 679.83,-74.86 955.33,-328.51 275.34,-253.51 454.04,-613.52 503.18,-1013.74 v 0 c 101.47,-826.4 -387.71,-1568.93 -1090.46,-1655.23 -45.33,-5.56 -90.65,-8.32 -135.78,-8.33"
         style="fill:#ffffff;fill-opacity:1;fill-rule:nonzero;stroke:none"
         transform="matrix(0.13333333,0,0,-0.13333333,0,793.70667)" />
      <path
         id="path20"
         d="m 2976.37,4478.87 c -828.47,0 -1502.48,-674.01 -1502.48,-1502.49 0,-828.47 674.01,-1502.49 1502.48,-1502.49 828.48,0 1502.49,674.02 1502.49,1502.49 0,828.48 -674.01,1502.49 -1502.49,1502.49 z m 0,-3012.48 c -832.6,0 -1509.98,677.39 -1509.98,1509.99 0,832.62 677.38,1509.99 1509.98,1509.99 832.61,0 1509.99,-677.37 1509.99,-1509.99 0,-832.6 -677.38,-1509.99 -1509.99,-1509.99"
         style="fill:#ffffff;fill-opacity:1;fill-rule:nonzero;stroke:none"
         transform="matrix(0.13333333,0,0,-0.13333333,0,793.70667)" />
    </g>
  </g>
</svg>
